PathFileType	4	(X/Y/Z)	Run_400 05
DataRate	CameraRate	NumFrames	NumMarkers	Units	OrigDataRate	OrigDataStartFrame	OrigNumFrames
120	120	4	42	mm	120	192	128
Frame#	Time	LASI			RASI			LPSI			RPSI			RTH1			RTH2			RTH3			LTH1			LTH2			LTH3			RTB1			RTB2			RTB3			LTB1			LTB2			LTB3			RCAL			RTOE			RMT5			LCAL			LTOE			LMT5			LACR			RACR			CLAV			C7			RUA1			RUA2			RUA3			RLEL			RMEL			LUA1			LUA2			LUA3			LLEL			LMEL			RFAsuperior			RFAradius			RFAulna			LFAsuperior			LFAradius			LFAulna			
		X1	Y1	Z1	X2	Y2	Z2	X3	Y3	Z3	X4	Y4	Z4	X5	Y5	Z5	X6	Y6	Z6	X7	Y7	Z7	X8	Y8	Z8	X9	Y9	Z9	X10	Y10	Z10	X11	Y11	Z11	X12	Y12	Z12	X13	Y13	Z13	X14	Y14	Z14	X15	Y15	Z15	X16	Y16	Z16	X17	Y17	Z17	X18	Y18	Z18	X19	Y19	Z19	X20	Y20	Z20	X21	Y21	Z21	X22	Y22	Z22	X23	Y23	Z23	X24	Y24	Z24	X25	Y25	Z25	X26	Y26	Z26	X27	Y27	Z27	X28	Y28	Z28	X29	Y29	Z29	X30	Y30	Z30	X31	Y31	Z31	X32	Y32	Z32	X33	Y33	Z33	X34	Y34	Z34	X35	Y35	Z35	X36	Y36	Z36	X37	Y37	Z37	X38	Y38	Z38	X39	Y39	Z39	X40	Y40	Z40	X41	Y41	Z41	X42	Y42	Z42	

192	1.691667	978.043884	999.943697	-443.659176	939.601265	1027.196915	-180.112949	788.797186	1047.468658	-379.721562	773.677496	1051.929868	-300.316832	875.970415	857.878541	-136.241229	944.528819	753.990465	-143.017205	893.366967	633.956946	-190.932722	978.52228	799.1585	-487.086863	1091.555968	715.702722	-474.181837	1077.435912	597.277743	-457.037927	929.356865	352.262295	-293.751189	880.074316	294.171902	-235.372346	839.3990219999999	213.846794	-315.450999	1029.480149	447.725144	-389.027874	942.037473	459.78146	-444.842418	827.526329	433.50872	-384.982845	653.656966	113.279101	-348.419256	883.64112	63.310618	-349.593566	806.426337	49.643123	-259.781089	674.5877829999999	523.5833689999999	-376.101847	691.189164	290.488181	-371.785784	662.258339	358.681756	-458.266738	1031.304132	1476.687251	-478.231804	998.421368	1467.953827	-131.917929	1052.658995	1414.197777	-268.281248	929.835955	1514.80563	-307.477453	964.749834	1358.667352	-57.348719	954.457617	1267.556661	-64.57546600000001	884.786974	1274.20023	-27.326006	855.394775	1142.961987	16.570496	811.801244	1136.331313	-55.614839	1004.406974	1387.543168	-556.54707	992.866425	1315.160951	-548.749366	898.534434	1330.756844	-575.155746	861.927853	1176.030914	-631.435608	801.61036	1177.915307	-566.562831	957.942982	1115.604663	-13.111967	1086.802736	1101.588378	-135.542299	1086.374134	1046.250252	-87.736879	945.484144	1142.340054	-590.409792	1063.356778	1107.339006	-461.647956	1047.055119	1041.972493	-488.951393	
193	1.7	978.436318	1003.253269	-441.142964	938.838515	1027.641832	-179.397909	788.940555	1050.851711	-379.829908	774.074538	1054.84136	-300.287245	870.218801	858.90387	-136.66619	933.883002	752.266603	-143.886226	876.320642	634.526419	-192.273936	984.4579	806.803811	-486.735795	1101.486007	729.435283	-473.27995	1092.880619	610.45609	-456.797865	901.251954	350.134212	-294.981791	850.731807	293.217625	-236.60165	808.508294	213.553895	-316.191216	1053.587295	455.809045	-388.802311	965.083995	462.102076	-445.187524	853.299357	426.524796	-385.677052	620.882936	115.825652	-348.655473	850.054473	62.99343	-349.885996	772.483308	49.749765	-260.098745	692.4151890000001	504.791072	-377.434759	729.786525	274.156121	-372.910368	694.569463	339.528254	-460.004208	1027.093994	1481.180948	-480.203614	1002.97618	1472.993741	-134.192802	1053.519935	1418.064393	-271.137873	929.260097	1517.730185	-307.611373	972.43686	1363.973265	-58.564326	963.01677	1272.83355	-65.390685	894.007763	1277.540207	-26.621001	868.6371799999999	1145.672058	17.465846	824.033205	1138.257415	-54.141676	996.727383	1394.275645	-559.6207470000001	985.002887	1321.866633	-552.783678	889.748994	1338.603608	-575.266469	850.455449	1184.487279	-631.50451	791.562909	1186.96637	-565.524118	971.1346109999999	1122.531304	-15.489713	1097.244962	1116.731631	-141.715895	1100.57484	1060.470253	-95.10844	934.961418	1151.481044	-591.752333	1053.762104	1117.077532	-464.241546	1038.49269	1051.971113	-492.819811	
194	1.708333	979.280802	1007.217631	-438.685793	938.205801	1028.455481	-178.335645	789.74455	1054.996693	-379.940364	775.01645	1058.23747	-300.195031	865.016563	860.2905960000001	-137.294716	922.626931	750.975539	-145.182806	858.81598	636.284615	-194.112318	990.265905	815.422225	-486.684054	1110.370918	743.850766	-472.239996	1106.907553	624.220299	-456.736366	872.810832	349.134544	-296.613591	821.082805	293.384976	-238.200282	777.215142	214.339629	-317.209614	1076.129915	464.176591	-388.464194	987.183674	464.304156	-445.415057	879.053703	419.121414	-386.015147	588.192074	119.224376	-348.560287	816.350769	62.834888	-350.16248	738.535645	49.968947	-260.59171	710.946277	484.111245	-378.231289	770.179379	257.963282	-373.709096	728.505709	319.960208	-461.578637	1022.505155	1486.610434	-482.119413	1007.654528	1479.084926	-136.661769	1054.487799	1423.18229	-274.040187	928.5976010000001	1521.364483	-307.662772	979.712387	1370.956133	-60.16415	971.346768	1279.646645	-66.69499	903.239806	1282.628923	-26.046129	881.0487450000001	1150.153587	17.760782	835.176195	1142.296112	-53.369532	988.581425	1402.365223	-562.491999	977.137859	1329.740744	-556.599685	881.23778	1347.191206	-574.832164	839.2218319999999	1194.04814	-631.198931	781.724574	1196.944281	-563.9687730000001	983.632095	1131.663287	-18.589151	1106.102883	1133.317512	-147.963087	1113.072987	1076.503676	-102.496239	925.062122	1162.242923	-592.647028	1044.669626	1127.828062	-466.850204	1030.465879	1063.056042	-496.532665	
195	1.716667	980.494089	1011.93308	-436.474956	937.968631	1029.523435	-176.648356	791.162962	1059.962248	-379.88087	776.606571	1062.138718	-299.827433	860.528383	862.117576	-138.064172	911.411748	750.43526	-146.936992	841.372691	639.4068130000001	-196.030217	995.906159	824.926073	-486.820816	1118.279773	758.748021	-471.070206	1119.505722	638.365467	-457.00126	844.268361	349.685667	-298.431389	791.298831	295.099303	-239.989306	745.915527	216.505489	-318.346478	1097.353813	472.31901	-388.297408	1008.468345	466.053415	-445.4955	904.590256	411.298886	-386.170539	556.054495	123.961408	-348.208038	782.775675	62.845276	-350.490557	704.828396	50.413643	-261.29383	730.758425	461.751038	-378.573772	811.77985	242.201083	-374.334271	763.898873	300.179547	-462.717689	1017.695632	1492.777555	-483.986481	1012.149369	1486.01414	-139.204682	1055.583771	1429.352729	-277.001357	928.092618	1525.729465	-307.66609	986.496002	1378.913502	-62.10757	979.343767	1287.553462	-68.393023	912.35272	1289.219871	-25.548301	892.661014	1156.056417	17.649866	845.309828	1148.00955	-52.973428	980.423948	1411.370342	-564.874822	969.491345	1338.453944	-560.057879	873.110279	1356.268405	-573.766652	828.310577	1204.431246	-630.628593	772.381671	1207.583857	-561.947551	995.193907	1142.463003	-21.994541	1113.57161	1150.781359	-154.078727	1123.997206	1093.66315	-109.766402	915.250064	1173.491305	-593.797783	1036.197622	1139.293944	-469.482478	1022.914494	1074.809582	-499.902933	
